<?xml version="1.0" encoding="UTF-8"?>
<svg width="200" height="200" viewBox="0 0 200 200" version="1.1" xmlns="http://www.w3.org/2000/svg">
    <!-- Background Circle -->
    <circle cx="100" cy="100" r="95" fill="#004a8f"/>
    
    <!-- Inner Circle -->
    <circle cx="100" cy="100" r="85" fill="white"/>
    
    <!-- College Name Text -->
    <text x="100" y="70" font-family="Arial, sans-serif" font-size="24" font-weight="bold" text-anchor="middle" fill="#004a8f">KSR</text>
    <text x="100" y="100" font-family="Arial, sans-serif" font-size="16" text-anchor="middle" fill="#004a8f">COLLEGE OF</text>
    <text x="100" y="125" font-family="Arial, sans-serif" font-size="16" text-anchor="middle" fill="#004a8f">ENGINEERING</text>
    
    <!-- Decorative Elements -->
    <path d="M40,140 C60,160 140,160 160,140" stroke="#004a8f" stroke-width="2" fill="none"/>
    <path d="M40,60 C60,40 140,40 160,60" stroke="#004a8f" stroke-width="2" fill="none"/>
    
    <!-- Stars -->
    <path d="M100,30 L102,35 L107,35 L103,38 L105,43 L100,40 L95,43 L97,38 L93,35 L98,35 Z" fill="#004a8f"/>
    <path d="M30,100 L32,105 L37,105 L33,108 L35,113 L30,110 L25,113 L27,108 L23,105 L28,105 Z" fill="#004a8f"/>
    <path d="M170,100 L172,105 L177,105 L173,108 L175,113 L170,110 L165,113 L167,108 L163,105 L168,105 Z" fill="#004a8f"/>
</svg>
